<svg xmlns="http://www.w3.org/2000/svg" viewBox="0 0 152.03 180.36"><defs><style>.cls-1{fill:#009fe3;}.cls-2{font-size:91px;fill:#fff;font-family:Auto-Techno, Auto Techno;}</style></defs><g id="Calque_2" data-name="Calque 2"><g id="Calque_1-2" data-name="Calque 1"><path class="cls-1" d="M152,84.57c0,9.83-.13,19.66,0,29.48.16,9.32-3.36,16.3-11.66,21q-26.48,15-52.72,30.36c-8,4.73-15.52,4.57-23.46-.1C46.85,155.1,29.46,145,11.93,135.15,3.81,130.59,0,124,0,114.86Q.14,84.64,0,54.41C0,45,3.76,38.31,12.05,33.65Q38.36,18.88,64.34,3.5c7.84-4.62,15.31-4.67,23.09-.13q27.13,15.83,54.39,31.48C149.34,39.16,152,45.91,152,54.09,152,64.25,152,74.41,152,84.57Z"/><text class="cls-2" transform="translate(30.45 127.87)">v</text></g></g></svg>