<svg xmlns="http://www.w3.org/2000/svg" viewBox="0 0 167.49 205.05"><defs><style>.cls-1,.cls-3{fill:#1d1d1b;}.cls-2{font-size:91px;fill:#fff;font-family:Auto-Techno, Auto Techno;}.cls-3{font-size:31px;font-family:BABAPROFONT-Bold, BABAPRO FONT;font-weight:700;}</style></defs><g id="Calque_2" data-name="Calque 2"><g id="Calque_1-2" data-name="Calque 1"><path class="cls-1" d="M154.33,84.57c0,9.83-.13,19.66,0,29.48.16,9.32-3.37,16.3-11.66,21Q116.23,150,90,165.4c-8,4.73-15.52,4.57-23.46-.1C49.19,155.1,31.8,145,14.27,135.15,6.15,130.59,2.33,124,2.37,114.86q.1-30.23,0-60.45c0-9.38,3.76-16.1,12.05-20.76Q40.7,18.88,66.68,3.5C74.51-1.12,82-1.17,89.76,3.37q27.15,15.83,54.4,31.48c7.52,4.31,10.15,11.06,10.16,19.24C154.35,64.25,154.33,74.41,154.33,84.57Z"/><text class="cls-2" transform="translate(32.78 127.87)">v</text><text class="cls-3" transform="translate(21.28 197.39)">VTDEV</text></g></g></svg>