<svg xmlns="http://www.w3.org/2000/svg" xmlns:xlink="http://www.w3.org/1999/xlink" viewBox="0 0 432.18 288.12"><defs><style>.cls-1{fill:none;}.cls-2{clip-path:url(#clip-path);}.cls-3{font-size:91px;fill:#fff;font-family:Auto-Techno, Auto Techno;}</style><clipPath id="clip-path" transform="translate(135.66 45.21)"><path class="cls-1" d="M0,84.57c0,9.83.13,19.66,0,29.48-.15,9.32,3.37,16.3,11.66,21q26.49,15,52.72,30.36c8,4.73,15.53,4.57,23.46-.1,17.33-10.2,34.72-20.31,52.26-30.15C148.22,130.59,152,124,152,114.86q-.1-30.23,0-60.45c.05-9.38-3.77-16.1-12.05-20.76Q113.67,18.88,87.69,3.5C79.85-1.12,72.38-1.17,64.6,3.37Q37.47,19.2,10.21,34.85C2.69,39.16.06,45.91,0,54.09,0,64.25,0,74.41,0,84.57Z"/></clipPath></defs><g id="Calque_2" data-name="Calque 2"><g id="Calque_1-2" data-name="Calque 1"><g class="cls-2"><image width="5316" height="3544" transform="scale(0.08)" xlink:href="../../../../Downloads/grunge-scratched-black-concrete-textured-background.jpg"/></g><text class="cls-3" transform="translate(166.1 173.08)">v</text></g></g></svg>